<?xml version="1.0" encoding="utf-8"?>
<!-- Generator: Adobe Illustrator 22.0.1, SVG Export Plug-In . SVG Version: 6.00 Build 0)  -->
<svg version="1.1" id="圖層_1" xmlns="http://www.w3.org/2000/svg" xmlns:xlink="http://www.w3.org/1999/xlink" x="0px" y="0px"
	 viewBox="0 0 165 20" style="enable-background:new 0 0 165 20;" xml:space="preserve">
<style type="text/css">
	.st0{fill:#FF595F;}
</style>
<g>
	<g>
		<path class="st0" d="M21.7,16.7c-0.5,0-1.1-0.2-1.1-1.5v-4.3c0,0,0.2,0,0.5,0s0.7-0.2,1-0.5c0.7-0.7,1.8-1.8,1.9-1.9
			C24.2,8.2,24.3,8,24,8c-0.4,0-3.5,0-3.5,0s0-2.3,0-2.7c0-0.4-0.2-0.6-0.5-0.2c-1.4,1.4-5.1,5.1-5.3,5.3s-0.2,0.4,0.1,0.4s2,0,2,0
			v4.9c0,2.6,1.3,3.9,3.8,3.9c0.8,0,1.5-0.1,2-0.3c0.4-0.2,0.5-0.3,0.5-0.6c0-0.6,0-1.8,0-2.1c0-0.4-0.2-0.4-0.3-0.4
			C22.5,16.5,22,16.7,21.7,16.7z"/>
		<path class="st0" d="M62.8,16.7c-0.5,0-1.1-0.2-1.1-1.5v-4.3c0,0,0.2,0,0.5,0s0.7-0.2,1-0.5c0.7-0.7,1.8-1.8,1.9-1.9
			C65.3,8.2,65.5,8,65.2,8c-0.4,0-3.5,0-3.5,0s0-2.3,0-2.7c0-0.4-0.2-0.6-0.5-0.2c-1.4,1.4-5.1,5.1-5.3,5.3s-0.2,0.4,0.1,0.4
			s2,0,2,0v4.9c0,2.6,1.3,3.9,3.8,3.9c0.8,0,1.5-0.1,2-0.3c0.4-0.2,0.5-0.3,0.5-0.6c0-0.6,0-1.8,0-2.1c0-0.4-0.2-0.4-0.3-0.4
			C63.6,16.5,63.1,16.7,62.8,16.7z"/>
		<path class="st0" d="M88.2,14c0-1.9-0.5-3.4-1.6-4.5c-0.9-0.9-2.1-1.5-3.5-1.6c-0.3,0-0.7-0.1-1-0.1s-0.7,0-1,0.1
			c-1.4,0.1-2.6,0.7-3.5,1.6C76.5,10.6,76,12.1,76,14c0,1.6,0.7,3.3,1.5,4.1c0.8,0.8,1.5,1.1,2.1,1.3c0.6,0.2,1.7,0.4,2.5,0.4
			s1.6-0.1,2.6-0.4c1-0.4,1.4-0.7,2-1.3C87.7,17,88.2,15.6,88.2,14z M84.7,13.8c0,0.9-0.2,1.6-0.7,2.1c-0.4,0.5-1.1,0.7-1.8,0.8
			c-0.8,0-1.4-0.3-1.8-0.8c-0.5-0.5-0.7-1.2-0.7-2.1s0.2-1.7,0.7-2.2c0.4-0.5,1-0.7,1.8-0.8c0.7,0,1.3,0.3,1.8,0.8
			C84.4,12.1,84.7,12.8,84.7,13.8z"/>
		<path class="st0" d="M41.9,9.3c-0.8-0.9-1.9-1.5-3.2-1.6c-0.3,0-0.6-0.1-0.9-0.1c-0.3,0-0.6,0-1,0.1c-1.3,0.1-2.4,0.7-3.2,1.6
			c-1,1.1-1.5,2.7-1.5,4.6c0,1.7,0.5,3.1,1.4,4.1c0.5,0.6,1.2,1.1,1.9,1.3l0,0l0,0c0.1,0,0.1,0,0.2,0.1c0.7,0.2,1,0.3,2.1,0.3
			c2.2,0,3.1-0.5,4.2-1.1c0.2-0.2,0.3-0.2,0.3-0.5c0-0.6,0-1.9,0-2.1s-0.3-0.4-0.5-0.2c-0.6,0.4-1.6,1-3.4,1c-2.4,0-2.9-2.3-2.9-2.3
			s7.3,0,7.6,0s0.4-0.2,0.4-0.4c0-0.1,0-0.2,0-0.3C43.4,12,42.9,10.5,41.9,9.3z M35.5,12.4c0,0,0.1-2.1,2.2-2.1
			c2.1,0,2.2,2.1,2.2,2.1H35.5z"/>
		<path class="st0" d="M54.1,9.3c-0.8-0.9-1.9-1.5-3.2-1.6c-0.3,0-0.6-0.1-0.9-0.1c-0.3,0-0.6,0-1,0.1c-1.3,0.1-2.4,0.7-3.2,1.6
			c-1,1.1-1.5,2.7-1.5,4.6c0,1.7,0.5,3.1,1.4,4.1c0.5,0.6,1.2,1.1,1.9,1.3l0,0l0,0c0.1,0,0.1,0,0.2,0.1c0.7,0.2,1,0.3,2.1,0.3
			c2.2,0,3.1-0.5,4.2-1.1c0.2-0.2,0.3-0.2,0.3-0.5c0-0.6,0-1.9,0-2.1s-0.3-0.4-0.5-0.2c-0.6,0.4-1.6,1-3.4,1c-2.4,0-2.9-2.3-2.9-2.3
			s7.3,0,7.6,0s0.4-0.2,0.4-0.4c0-0.1,0-0.2,0-0.3C55.6,12,55,10.5,54.1,9.3z M47.7,12.4c0,0,0.1-2.1,2.2-2.1c2.1,0,2.2,2.1,2.2,2.1
			H47.7z"/>
		<path class="st0" d="M114.5,9.3c-0.8-0.9-1.9-1.5-3.2-1.6c-0.3,0-0.6-0.1-0.9-0.1s-0.6,0-1,0.1c-1.3,0.1-2.4,0.7-3.2,1.6
			c-1,1.1-1.5,2.7-1.5,4.6c0,1.7,0.5,3.1,1.4,4.1c0.5,0.6,1.2,1.1,1.9,1.3l0,0l0,0c0.1,0,0.1,0,0.2,0.1c0.7,0.2,1,0.3,2.1,0.3
			c2.2,0,3.1-0.5,4.2-1.1c0.2-0.2,0.3-0.2,0.3-0.5c0-0.6,0-1.9,0-2.1s-0.3-0.4-0.5-0.2c-0.6,0.4-1.6,1-3.4,1c-2.4,0-2.9-2.3-2.9-2.3
			s7.3,0,7.6,0c0.3,0,0.4-0.2,0.4-0.4c0-0.1,0-0.2,0-0.3C116,12,115.5,10.5,114.5,9.3z M108.1,12.4c0,0,0.1-2.1,2.2-2.1
			s2.2,2.1,2.2,2.1H108.1z"/>
		<path class="st0" d="M104.6,17.8c-0.4-0.5-0.7-1-1-1.6c-0.1-0.2-0.4-0.2-0.6-0.1c-0.8,0.5-1.5,0.6-2.1,0.6c-0.8,0-1.4-0.3-1.8-0.8
			c-0.5-0.5-0.7-1.2-0.7-2.1s0.2-1.7,0.7-2.2c0.4-0.5,1.2-0.8,1.9-0.8c0.7-0.1,1.4,0.2,2,0.5c0.2,0.2,0.5,0,0.5-0.1
			c0.2-0.7,0.6-1.3,1-1.8c0.2-0.2,0.1-0.4,0-0.5c-0.6-0.5-1.4-1-2.6-1.1c-0.3,0-0.7-0.1-1-0.1c0,0-0.9,0-1.3,0.1
			c-1.4,0.1-2.6,0.7-3.5,1.6c-1.1,1.1-1.6,2.6-1.6,4.5c0,1.7,0.7,3.3,1.5,4.1c0.4,0.4,0.8,0.7,1.2,0.9c0.4,0.3,0.7,0.4,1.1,0.5
			s1.3,0.3,2.2,0.3h0.1c0.1,0,0.2,0,0.2,0l0,0c0.1,0,0.1,0,0.2,0c0.8,0,1.7-0.3,2.4-0.7c0.4-0.2,0.7-0.4,0.9-0.6
			C104.9,18.2,104.7,17.9,104.6,17.8z"/>
		<path class="st0" d="M9.5,9.5C7.7,9.4,7.3,8.8,7.3,8.4c0-0.5,0.2-1,1-1c0.7,0,4.3,0,5.6,0c0.6,0,1-0.5,1-0.5
			c-0.1,0.1,3.3-3.3,3.3-3.3s0.5-0.5,0-0.5c-1.9,0-8.9,0-10.2,0c-1.6,0-4.8,1.6-4.8,4.8s2,5,4,5.4c1.8,0.4,2.6,0,2.8,1.2
			c0.1,0.3-0.2,1.1-1,1.1c-0.3,0-4.3,0-4.6,0c-0.3,0-0.7,0.2-1,0.5c-0.2,0.2-2.2,2.2-3.1,3.1c-0.2,0.2-0.4,0.5,0.1,0.5
			c2.1,0,7.6,0,9.2,0c2,0,5.1-1.8,5-5.3C14.5,11.4,12.4,9.7,9.5,9.5z"/>
		<path class="st0" d="M32.4,8.5c-0.5-0.2-1.2-0.3-1.7-0.3c-1,0-2.3,0.6-2.8,1.3c0,0-0.1-0.4-0.5-1.1C27.3,8.2,27.1,8,27,7.8
			c-0.2-0.2-0.4-0.2-0.7,0.1c-0.3,0.3-1.6,1.6-2.2,2.2c-0.2,0.2-0.2,0.4-0.1,0.5c0.1,0.3,0.2,0.6,0.2,1c0,1.7,0,6.1,0.1,7.6
			c0,0.3,0.2,0.5,0.5,0.5c0.2,0,1.8,0,2.6,0c0.3,0,0.5-0.2,0.5-0.5s0-5,0-5c0-0.9,0.2-1.6,0.6-2.1s0.9-0.7,1.6-0.7
			c0.3,0,0.7,0,1.1,0.1c0.3,0.1,0.5,0,0.5-0.3c0.1-0.3,0.2-0.7,0.4-1.2c0.2-0.4,0.4-0.7,0.6-0.9C32.7,8.9,32.7,8.6,32.4,8.5z"/>
		<path class="st0" d="M78.2,2.5c-0.4,0.4-7.9,7.8-7.9,7.8s0-5.4,0-5.8c0-0.3-0.1-0.6-0.5-0.2c-0.3,0.3-2.4,2.4-3.3,3.3
			c-0.2,0.2-0.4,0.7-0.4,1.1c0,0.4,0,7.7,0,10.2c0,0.5,0.2,0.6,0.5,0.3C66.8,19,80.8,5.1,83.5,2.3c0.3-0.3,0.3-0.5,0-0.5
			c-0.2,0-3,0-4.2,0C79,2,78.6,2.2,78.2,2.5z"/>
		<g>
			<g>
				<path class="st0" d="M90.4,19.8c0.3,0,1.4,0,2,0c0.4,0,0.6-0.2,0.6-0.6C93,17,93,9,93,8.8S92.9,8,92.5,8.4
					c-0.4,0.4-1.7,1.7-2.3,2.3c-0.2,0.2-0.3,0.6-0.3,1.1s0,7,0,7.4C89.8,19.6,90,19.8,90.4,19.8z"/>
				<path class="st0" d="M89.8,7.4c0,0.2,0,1,0,1.6c0,0.4,0.2,0.5,0.4,0.3c0.2-0.2,1.6-1.7,2.4-2.4c0.2-0.2,0.4-0.5,0.4-1
					c0-0.6,0-1.4,0-1.5c0-0.3-0.1-0.7-0.5-0.3c-0.3,0.3-1.7,1.7-2.3,2.3C90,6.6,89.8,7,89.8,7.4z"/>
			</g>
		</g>
		<g>
			<g>
				<g>
					<path class="st0" d="M134.2,1.1c0,0.1,0,0.7,0,1.1c0,0.2,0.1,0.3,0.3,0.3c1.2,0,5.7,0,5.9,0s0.3-0.1,0.3-0.3c0-0.4,0-1,0-1.1
						c0-0.2-0.1-0.3-0.3-0.3c-0.1,0-4.7,0-6,0C134.3,0.9,134.2,0.9,134.2,1.1z"/>
					<path class="st0" d="M134.5,7.9c0.2,0,1.6,0,1.6,0v9.4c0,0-2.1,2.1-2.1,2.2c-0.1,0.1-0.2,0.3,0,0.3s2.8,0,2.8,0l2.2-2.3V12V7.9
						c0,0,1.2,0,1.5,0c0.2,0,0.3-0.1,0.3-0.3c0-0.3,0-0.9,0-1.1s-0.1-0.3-0.3-0.3c-1.2,0-5.9,0-6,0s-0.3,0-0.3,0.3
						c0,0.2,0,0.7,0,1.1C134.2,7.8,134.2,7.9,134.5,7.9z"/>
					<path class="st0" d="M133.3,6.2c-0.2,0-2.6,0-2.6,0V2.5c0,0,2.3,0,2.5,0s0.3-0.1,0.3-0.3c0-0.4,0-0.9,0-1.1s-0.1-0.3-0.2-0.3
						s-2.6,0-2.6,0s0-0.2,0-0.3s0-0.3-0.3-0.3c-0.2,0-1.6,0-2.3,0c-0.2,0-0.3,0.1-0.3,0.3c0,0.3,0,0.3,0,0.3s-2.5,0-2.6,0
						s-0.3,0-0.3,0.3c0,0.2,0,0.6,0,1c0,0.2,0,0.4,0.4,0.4s2.5,0,2.5,0v3.7c0,0-2.4,0-2.6,0c-0.1,0-0.3,0-0.3,0.3c0,0.2,0,0.7,0,1
						c0,0.2,0.1,0.4,0.3,0.4c0.2,0,6.5,0,7.9,0c0.2,0,0.3-0.1,0.3-0.3c0-0.1,0-0.7,0-1.1C133.6,6.3,133.5,6.2,133.3,6.2z"/>
					<path class="st0" d="M117.7,4.2c0.1,0,1.8,0,2.5,0c0.2,0,0.4-0.1,0.6-0.3c0.7-0.7,2.7-2.7,2.8-2.8c0.2-0.2,0.1-0.2,0-0.2
						s-1.8,0-2.5,0c-0.2,0-0.4,0.1-0.6,0.3s-2.1,2.1-2.7,2.8C117.5,4.1,117.6,4.2,117.7,4.2z"/>
					<path class="st0" d="M120,6.6c-0.3,0.3-2.3,2.3-3,3c-0.2,0.2-0.1,0.3,0.1,0.3c0.1,0,3.8,0,3.8,0s0,9.4,0,9.5
						c0,0.1,0,0.4,0.3,0.4s1.6,0,2.2,0c0.2,0,0.3-0.1,0.3-0.3c0-2,0-12.8,0-12.9c0-0.2-0.1-0.3-0.2-0.3c-0.7,0-2.6,0-2.8,0
						C120.6,6.2,120.4,6.3,120,6.6z"/>
					<path class="st0" d="M130.7,17.3v-3.7c0,0,2.2,0,2.5,0s0.3-0.2,0.3-0.3s0-0.7,0-1c0-0.2-0.1-0.3-0.4-0.3c-0.3,0-2.5,0-2.5,0
						s0-3.2,0-3.3s0-0.4-0.4-0.4c-0.3,0-1.6,0-2.2,0c-0.2,0-0.3,0.1-0.3,0.3s0,3.4,0,3.4s-2.3,0-2.5,0s-0.4,0-0.4,0.3
						c0,0.2,0,0.7,0,1c0,0.2,0,0.3,0.3,0.3s2.5,0,2.5,0v3.7c0,0-3,0-3.1,0s-0.3,0-0.3,0.3c0,0.2,0,0.7,0,1.1c0,0.2,0.1,0.3,0.3,0.3
						c1.5,0,8.5,0,8.7,0c0.3,0,0.4-0.1,0.6-0.3c0.4-0.4,1.1-1.1,1.2-1.2c0.1-0.1,0.2-0.3-0.1-0.3S130.7,17.3,130.7,17.3z"/>
				</g>
				<g>
					<path class="st0" d="M152.7,2.1c0-0.4,0-0.9,0-1c0-0.2,0-0.3-0.3-0.3s-3.5,0-3.5,0s0-0.1,0-0.3s-0.1-0.3-0.3-0.3
						c-0.6,0-2.2,0-2.3,0s-0.3,0-0.3,0.3c0,0.4,0,0.3,0,0.3s-3.3,0-3.4,0c-0.2,0-0.3,0-0.3,0.3c0,0.2,0,0.6,0,1c0,0.2,0,0.4,0.3,0.4
						s3.4,0,3.4,0v1.1c0,0-3.3,0-3.4,0c-0.1,0-0.3,0-0.3,0.3c0,0.2,0,0.7,0,1c0,0.2,0,0.3,0.3,0.3c0.2,0,8,0,9.8,0
						c0.3,0,0.4-0.1,0.4-0.3c0-0.4,0-0.9,0-1s0-0.3-0.3-0.3c-0.2,0-3.6,0-3.6,0V2.5c0,0,3.2,0,3.5,0C152.7,2.5,152.7,2.4,152.7,2.1z
						"/>
					<path class="st0" d="M161.9,2.5c0,0,0-1.1,0-1.3s-0.1-0.3-0.3-0.3c-1.5,0-8.1,0-8.3,0C153,0.9,153,1,153,1.3c0,1,0,3.7,0,3.7
						c0,0.1,0,0.3,0.3,0.3c0.2,0,1.6,0,2.3,0c0.2,0,0.3-0.1,0.3-0.4s0-2.4,0-2.4h3.2c0,0,0,2.2,0,2.4s0.1,0.3,0.3,0.3
						c0.7,0,2.4,0,2.7,0c0.4,0,0.5-0.1,0.7-0.4c0.7-0.7,2-2.1,2.1-2.1c0.1-0.1,0.3-0.3,0-0.3C164.5,2.5,161.9,2.5,161.9,2.5z"/>
					<path class="st0" d="M162.3,11.7c0-0.3,0-0.9,0-1c0-0.2-0.1-0.3-0.3-0.3c-2.5,0-19.2,0-19.3,0c-0.2,0-0.4,0.1-0.4,0.3
						s0,0.7,0,1c0,0.2,0.1,0.3,0.3,0.3c0.3,0,2,0,2,0v5.4c0,0-1.3,0-1.6,0s-0.5,0.1-0.6,0.3c-0.4,0.4-1.1,1.1-1.2,1.2
						c-0.1,0.1-0.1,0.2,0,0.2c0.2,0,14.2,0,14.2,0s-0.3,0.3-0.5,0.5s-0.2,0.3,0.1,0.3c0.2,0,1.7,0,2.3,0c0.2,0,0.4-0.1,0.6-0.2
						c0.2-0.2,0.5-0.5,0.5-0.5s3.1,0,3.4,0c0.3,0,0.3-0.2,0.3-0.3c0-0.1,0-0.6,0-1c0-0.2-0.1-0.3-0.3-0.3c-0.3,0-1.9,0-1.9,0V12
						c0,0,1.7,0,1.9,0C162.2,12,162.3,11.9,162.3,11.7z M157.1,15h-9.7v-0.7h9.7V15z M147.5,17.3v-0.7h9.7v0.7l0,0H147.5z
						 M157.1,12.6h-9.7V12h9.7V12.6z"/>
					<path class="st0" d="M142.2,6c0,0.3,0,2.8,0,2.8v0.1c0,0-0.9,0.9-1,1s-0.2,0.2,0,0.2s1.8,0,2.5,0c0.3,0,0.5-0.2,0.5-0.2
						c0.1-0.1,0.6-0.6,0.6-0.6s7.2,0,7.5,0s0.3-0.1,0.3-0.4c0-0.8,0-2.7,0-2.9c0-0.2-0.1-0.3-0.3-0.3c-1.7,0-9.7,0-9.8,0
						C142.4,5.6,142.2,5.7,142.2,6z M146.1,7.8h-1V7.1h1V7.8z M149.9,7.8h-1V7.1h1V7.8z"/>
					<path class="st0" d="M162,5.6c-0.2,0-7.2,0-8.7,0c-0.2,0-0.2,0.1-0.1,0.2c0.2,0.2,2,2,2,2s-1.9,1.9-2,2c-0.1,0.1-0.3,0.3,0,0.3
						s3.6,0,3.6,0l0.7-0.5l0.7,0.5c0,0,3.3,0,3.6,0s0.1-0.2,0-0.3s-1.9-2-1.9-2s1.9-1.9,2-2C162.1,5.8,162.2,5.6,162,5.6z
						 M157.6,7.6l-0.7-0.5h1.5L157.6,7.6z"/>
				</g>
			</g>
		</g>
	</g>
</g>
</svg>
